<?xml version="1.0" encoding="UTF-8"?><svg id="Layer_2" xmlns="http://www.w3.org/2000/svg" viewBox="0 0 540.94 588.17"><defs><style>.cls-1{fill:#fbe9dd;font-family:AbrilFatface-Regular, 'Abril Fatface';font-size:48px;}.cls-2{fill:#e0a71f;stroke-width:0px;}.cls-3{letter-spacing:0em;}.cls-4{letter-spacing:-.02em;}.cls-5{letter-spacing:0em;}</style></defs><path class="cls-2" d="M34.78,136.82c5.9,20.76,24.9,25.41,35.12,22.5,5.8-1.65,8.86-8.29,6.65-16.08-1.43-5.04-3.52-8.9-22.83-22.88-8.5-6.22-14.07-12.94-17.42-20.02.17,1.91.27,3.8.27,5.54,0,6.21-1.07,13.67-3.34,20.13l1.54,10.8Z"/><path class="cls-2" d="M57.37,50.71c3.24-.92,6.1-1.44,8.66-1.64-.86-2.47-2.62-5.46-6.5-8.26-3.3-7.46-7.83-24.34-7.95-25.67-.1,1.7-1.79,28.71-5.7,30.26-2.49.99-3.28,9.21-3.28,9.21,0,0-5.7.04-9.11,7.81-1.26,2.88-1.97,9.51.1,13.84,2.72-11.53,11-21.93,23.77-25.56Z"/><path class="cls-2" d="M20.6,132.02c-7.27-7.27-14.83-19.52-11.45-33.39,1.59-6.5,1.09-11.19,9.96-15.01,3.68-1.59,10.32,1.22,13.52,2.24-.1-2.89.16-5.81.76-8.67-17.03-6.29-25.59,1.77-29.48,9.58-9.65,19.35-.3,42.29,15.79,60.54-.74-5.55-.74-11.17.91-15.29Z"/><path class="cls-2" d="M89.86,72.22s0,.03,0,.04c0,0,.01,0,.02.01,0-.02-.01-.03-.02-.05Z"/><path class="cls-2" d="M108.95,71.76s-14.59-2.72-19.07.51c-.01.03-.02.02-.02-.01-15.74-11.21-26.22-6.28-30.78-2.64-2.73,2.18-3.82,7.92-2.57,12.35,1.39,4.89,5.67,10.1,18.04,19.95,3.83,3.1,7.03,5.79,9.71,8.21,2.08-19.39,4.64-18.55,8.8-23.33,4.61-5.28,14.91-12.03,19.03-7.26,1.58-3.44-3.15-7.79-3.15-7.79Z"/><path class="cls-2" d="M68.28,180.9c-23.51,6.68-41.39-5.32-46.16-22.11-.1-.33-.19-.68-.28-1.02,1.35,12.56,9.9,31.51,39.59,29.41,20.17-3.12,33.89-14.95,34-27.95-5.04,9.59-14.05,17.96-27.15,21.68Z"/><text class="cls-1" transform="translate(100.26 125.07)"><tspan x="0" y="0">Sabo</tspan><tspan class="cls-4" x="109.44" y="0">r</tspan><tspan class="cls-3" x="132.48" y="0">a</tspan><tspan x="0" y="42">S</tspan><tspan class="cls-5" x="28.8" y="42">t</tspan><tspan x="47.47" y="42">udio</tspan></text></svg>